<?xml version="1.0" encoding="utf-8"?>
<!-- Generator: Adobe Illustrator 24.0.2, SVG Export Plug-In . SVG Version: 6.00 Build 0)  -->
<svg version="1.1" id="Layer_1" xmlns="http://www.w3.org/2000/svg" xmlns:xlink="http://www.w3.org/1999/xlink" x="0px" y="0px"
	 viewBox="0 0 200 200" style="enable-background:new 0 0 200 200;" xml:space="preserve">
<style type="text/css">
	.st0{fill:#FFFFFF;}
	.st1{fill:#E30713;}
</style>
<circle class="st0" cx="99.7" cy="100.3" r="98"/>
<g>
	<path d="M75.9,58.1c0.1,4.5-3.1,8-8.3,8c-4.6,0-7.9-3.6-7.9-8c0-4.6,3.4-8.2,8.2-8.2C72.8,49.9,75.9,53.5,75.9,58.1z M61.3,150
		V78.2h13.1V150H61.3z"/>
	<path class="st1" d="M85.7,44.7h13.1v44.8H99c2.1-3.7,5.3-7,9.3-9.2c3.9-2.2,8.5-3.7,13.3-3.7c9.6,0,25.1,5.9,25.1,30.7V150h-13.1
		v-41.2c0-11.6-4.3-21.4-16.6-21.4c-8.5,0-15.1,5.9-17.5,13.1c-0.7,1.8-0.9,3.7-0.9,6.2V150H85.7V44.7z"/>
</g>
</svg>
